<svg width="11" height="7" viewBox="0 0 11 7" fill="currentColor" xmlns="http://www.w3.org/2000/svg">
<path d="M3 0H4V1H3V0Z"  />
<path d="M2 1H3V2H2V1Z"  />
<path d="M1 2H2V3H1V2Z"  />
<path d="M0 3H1V4H0V3Z"  />
<path d="M1 4H2V5H1V4Z"  />
<path d="M2 5H3V6H2V5Z"  />
<path d="M3 6H4V7H3V6Z"  />
<path d="M7 6H8V7H7V6Z"  />
<path d="M8 5H9V6H8V5Z"  />
<path d="M9 4H10V5H9V4Z"  />
<path d="M10 3H11V4H10V3Z"  />
<path d="M9 2H10V3H9V2Z"  />
<path d="M8 1H9V2H8V1Z"  />
<path d="M7 0H8V1H7V0Z"  />
</svg>
